<svg xmlns="http://www.w3.org/2000/svg" width="512" height="512" viewBox="0 0 512 512">
  <defs>
    <clipPath id="globe-clip">
      <circle cx="256" cy="226" r="158"/>
    </clipPath>
    <radialGradient id="globe-grad" cx="40%" cy="35%" r="65%">
      <stop offset="0%" stop-color="#3a7ad4"/>
      <stop offset="40%" stop-color="#2563EB"/>
      <stop offset="100%" stop-color="#0F1F3D"/>
    </radialGradient>
  </defs>

  <!-- Background -->
  <rect width="512" height="512" rx="90" fill="#0F1F3D"/>

  <!-- Globe base -->
  <circle cx="256" cy="226" r="158" fill="url(#globe-grad)"/>

  <!-- Geometric facets -->
  <g clip-path="url(#globe-clip)">
    <polygon points="256,68 333,120 286,150" fill="#1a4a9a" opacity="0.9"/>
    <polygon points="256,68 179,120 226,150" fill="#2060c0" opacity="0.8"/>
    <polygon points="333,120 361,196 316,173" fill="#0d2f7a" opacity="0.9"/>
    <polygon points="179,120 151,196 196,173" fill="#1e50a8" opacity="0.7"/>
    <polygon points="286,150 316,173 301,218" fill="#1a4a9a" opacity="0.85"/>
    <polygon points="226,150 196,173 211,218" fill="#2563EB" opacity="0.5"/>
    <polygon points="316,173 361,196 346,241" fill="#0d2f7a" opacity="0.9"/>
    <polygon points="151,196 196,173 166,241" fill="#1e50a8" opacity="0.75"/>
    <polygon points="301,218 346,241 323,286" fill="#1a4a9a" opacity="0.85"/>
    <polygon points="211,218 166,241 188,286" fill="#2060c0" opacity="0.8"/>
    <polygon points="346,241 384,286 361,316" fill="#0d2f7a" opacity="0.9"/>
    <polygon points="166,241 128,286 151,316" fill="#1e50a8" opacity="0.75"/>
    <polygon points="323,286 361,316 331,346" fill="#1a4a9a" opacity="0.85"/>
    <polygon points="188,286 151,316 181,346" fill="#2060c0" opacity="0.8"/>
    <polygon points="256,68 333,120 256,128" fill="#3a7ad4" opacity="0.6"/>
    <polygon points="256,128 333,120 316,173" fill="#2563EB" opacity="0.5"/>
    <polygon points="196,106 256,68 226,128" fill="#5B9BF8" opacity="0.5"/>
    <polygon points="226,128 196,106 196,173" fill="#4a8ae8" opacity="0.4"/>
    <polygon points="151,196 196,173 181,226" fill="#5B9BF8" opacity="0.45"/>
  </g>

  <!-- Grid lines -->
  <circle cx="256" cy="226" r="158" fill="none" stroke="#5B9BF8" stroke-width="1.2" opacity="0.8"/>
  <g clip-path="url(#globe-clip)">
    <ellipse cx="256" cy="226" rx="158" ry="42" fill="none" stroke="#5B9BF8" stroke-width="1" opacity="0.7"/>
    <ellipse cx="256" cy="226" rx="158" ry="87" fill="none" stroke="#5B9BF8" stroke-width="1" opacity="0.6"/>
    <ellipse cx="256" cy="226" rx="158" ry="128" fill="none" stroke="#5B9BF8" stroke-width="1" opacity="0.5"/>
    <ellipse cx="256" cy="226" rx="42" ry="158" fill="none" stroke="#5B9BF8" stroke-width="1" opacity="0.7"/>
    <ellipse cx="256" cy="226" rx="87" ry="158" fill="none" stroke="#5B9BF8" stroke-width="1" opacity="0.6"/>
    <ellipse cx="256" cy="226" rx="128" ry="158" fill="none" stroke="#5B9BF8" stroke-width="1" opacity="0.5"/>
    <line x1="256" y1="68" x2="256" y2="384" stroke="#5B9BF8" stroke-width="1" opacity="0.7"/>
    <line x1="98" y1="226" x2="414" y2="226" stroke="#5B9BF8" stroke-width="1" opacity="0.7"/>
  </g>

  <!-- FollowOp text -->
  <text x="256" y="448" text-anchor="middle" font-family="Georgia, serif" font-size="44" font-weight="700" fill="#FFFFFF" letter-spacing="2">FollowOp</text>
</svg>
